<svg width="16" height="16" viewBox="0 0 16 16" fill="none" xmlns="http://www.w3.org/2000/svg">
<g clip-path="url(#clip0)">
<path opacity="0.7" d="M5.33335 12.4444L5.33335 3.55556L10.6667 3.55555L10.6667 12.4444L5.33335 12.4444ZM8.00002 1.33333C8.73641 1.33333 9.33335 0.736389 9.33335 -2.91409e-07L12 -4.07973e-07C12.7364 -4.40162e-07 13.3334 0.596943 13.3334 1.33333L13.3334 14.6667C13.3334 15.4031 12.7364 16 12 16L9.33335 16C9.33335 15.2636 8.73641 14.6667 8.00002 14.6667C7.26363 14.6667 6.66669 15.2636 6.66669 16L4.00002 16C3.26363 16 2.66669 15.4031 2.66669 14.6667L2.66669 1.33333C2.66669 0.596944 3.26363 -2.60933e-08 4.00002 -5.82818e-08L6.66669 -1.74846e-07C6.66669 0.736389 7.26363 1.33333 8.00002 1.33333ZM5.11113 2.66667C4.74294 2.66667 4.44446 2.96514 4.44446 3.33333L4.44446 12.6667C4.44446 13.0349 4.74294 13.3333 5.11113 13.3333L10.8889 13.3333C11.2571 13.3333 11.5556 13.0349 11.5556 12.6667L11.5556 3.33333C11.5556 2.96514 11.2571 2.66667 10.8889 2.66667L5.11113 2.66667Z" fill="white"/>
</g>
<defs>
<clipPath id="clip0">
<rect width="16" height="16" fill="white" transform="translate(0 16) rotate(-90)"/>
</clipPath>
</defs>
</svg>
