<svg width="32" height="32" viewBox="0 0 32 32" fill="none" xmlns="http://www.w3.org/2000/svg">
<circle cx="16" cy="16" r="16" fill="white"/>
<path d="M22.7805 12.0551C22.5856 10.9088 19.8025 10 16.3962 10C12.99 10 10.2068 10.9088 10.012 12.0551H10V12.1835V15.1376V15.2661V15.3945V18.2202V18.3486V18.4771V21.5597H10.012C10.2068 22.7056 12.9902 23.6147 16.3962 23.6147C19.8022 23.6147 22.5856 22.7056 22.7805 21.5597H22.7925V18.4771V18.3486V18.2202V15.3945V15.2661V15.1376V12.1835V12.0551H22.7805Z" fill="#424A60"/>
<path d="M16.3962 20.5321C12.8636 20.5321 10 19.5544 10 18.3486V21.5596H10.012C10.2068 22.7056 12.9902 23.6147 16.3962 23.6147C19.8022 23.6147 22.5856 22.7056 22.7805 21.5596H22.7925V18.3486C22.7925 19.5544 19.9288 20.5321 16.3962 20.5321Z" fill="#424A60"/>
<path d="M10 18.2202V18.3486C10 18.3055 10.0048 18.2628 10.012 18.2202H10Z" fill="#424A60"/>
<path d="M22.7805 18.2202C22.7876 18.2628 22.7924 18.3055 22.7924 18.3486V18.2202H22.7805Z" fill="#424A60"/>
<path d="M16.3962 17.4496C12.8636 17.4496 10 16.4719 10 15.2661V18.4772H10.012C10.2068 19.6231 12.9902 20.5322 16.3962 20.5322C19.8022 20.5322 22.5856 19.6231 22.7805 18.4772H22.7925V15.2661C22.7925 16.4719 19.9288 17.4496 16.3962 17.4496Z" fill="#EFCE4A"/>
<path d="M10 15.1376V15.2661C10 15.2229 10.0048 15.1803 10.012 15.1376H10Z" fill="#EFCE4A"/>
<path d="M22.7805 15.1376C22.7876 15.1803 22.7924 15.2229 22.7924 15.2661V15.1376H22.7805Z" fill="#EFCE4A"/>
<path d="M16.3962 14.367C19.9288 14.367 22.7924 13.3894 22.7924 12.1835C22.7924 10.9776 19.9288 10 16.3962 10C12.8637 10 10 10.9776 10 12.1835C10 13.3894 12.8637 14.367 16.3962 14.367Z" fill="#7FABDA"/>
<path d="M16.3962 14.367C12.8636 14.367 10 13.3893 10 12.1835V15.3945H10.012C10.2068 16.5404 12.9902 17.4495 16.3962 17.4495C19.8022 17.4495 22.5856 16.5404 22.7805 15.3945H22.7925V12.1835C22.7925 13.3893 19.9288 14.367 16.3962 14.367Z" fill="#7383BF"/>
<path d="M10 12.0551V12.1835C10 12.1403 10.0048 12.0977 10.012 12.0551H10Z" fill="#7383BF"/>
<path d="M22.7805 12.0551C22.7876 12.0977 22.7924 12.1403 22.7924 12.1835V12.0551H22.7805Z" fill="#7383BF"/>
</svg>
