<svg width="15" height="15" viewBox="0 0 15 15" fill="none" xmlns="http://www.w3.org/2000/svg">
<mask id="path-1-inside-1" fill="white">
<path fill-rule="evenodd" clip-rule="evenodd" d="M5.26667 6.93333H1.4V1.4H5.26667V6.93333ZM5.26667 13.6V11.4H1.4V13.6H5.26667ZM13.6 13.6V8.06667H9.73333V13.6H13.6ZM9.73333 3.6H13.6V1.4H9.73333V3.6ZM1 8.33333C0.447715 8.33333 0 7.88562 0 7.33333V1C0 0.447715 0.447714 0 0.999999 0H5.66667C6.21895 0 6.66667 0.447715 6.66667 1V7.33333C6.66667 7.88562 6.21895 8.33333 5.66667 8.33333H1ZM1 15C0.447715 15 0 14.5523 0 14V11C0 10.4477 0.447714 10 0.999999 10H5.66667C6.21895 10 6.66667 10.4477 6.66667 11V14C6.66667 14.5523 6.21895 15 5.66667 15H1ZM9.33333 15C8.78105 15 8.33333 14.5523 8.33333 14V7.66667C8.33333 7.11438 8.78105 6.66667 9.33333 6.66667H14C14.5523 6.66667 15 7.11438 15 7.66667V14C15 14.5523 14.5523 15 14 15H9.33333ZM8.33333 1C8.33333 0.447715 8.78105 0 9.33333 0H14C14.5523 0 15 0.447715 15 1V4C15 4.55228 14.5523 5 14 5H9.33333C8.78105 5 8.33333 4.55228 8.33333 4V1Z"/>
</mask>
<path fill-rule="evenodd" clip-rule="evenodd" d="M5.26667 6.93333H1.4V1.4H5.26667V6.93333ZM5.26667 13.6V11.4H1.4V13.6H5.26667ZM13.6 13.6V8.06667H9.73333V13.6H13.6ZM9.73333 3.6H13.6V1.4H9.73333V3.6ZM1 8.33333C0.447715 8.33333 0 7.88562 0 7.33333V1C0 0.447715 0.447714 0 0.999999 0H5.66667C6.21895 0 6.66667 0.447715 6.66667 1V7.33333C6.66667 7.88562 6.21895 8.33333 5.66667 8.33333H1ZM1 15C0.447715 15 0 14.5523 0 14V11C0 10.4477 0.447714 10 0.999999 10H5.66667C6.21895 10 6.66667 10.4477 6.66667 11V14C6.66667 14.5523 6.21895 15 5.66667 15H1ZM9.33333 15C8.78105 15 8.33333 14.5523 8.33333 14V7.66667C8.33333 7.11438 8.78105 6.66667 9.33333 6.66667H14C14.5523 6.66667 15 7.11438 15 7.66667V14C15 14.5523 14.5523 15 14 15H9.33333ZM8.33333 1C8.33333 0.447715 8.78105 0 9.33333 0H14C14.5523 0 15 0.447715 15 1V4C15 4.55228 14.5523 5 14 5H9.33333C8.78105 5 8.33333 4.55228 8.33333 4V1Z" fill="white"/>
<path d="M5.26667 6.93333V8.33333H6.66667V6.93333H5.26667ZM1.4 6.93333H0V8.33333H1.4V6.93333ZM1.4 1.4V0H0V1.4H1.4ZM5.26667 1.4H6.66667V0H5.26667V1.4ZM5.26667 11.4H6.66667V10H5.26667V11.4ZM5.26667 13.6V15H6.66667V13.6H5.26667ZM1.4 11.4V10H0V11.4H1.4ZM1.4 13.6H0V15H1.4V13.6ZM13.6 8.06667H15V6.66667H13.6V8.06667ZM13.6 13.6V15H15V13.6H13.6ZM9.73333 8.06667V6.66667H8.33333V8.06667H9.73333ZM9.73333 13.6H8.33333V15H9.73333V13.6ZM13.6 3.6V5H15V3.6H13.6ZM9.73333 3.6H8.33333V5H9.73333V3.6ZM13.6 1.4H15V0H13.6V1.4ZM9.73333 1.4V0H8.33333V1.4H9.73333ZM5.26667 5.53333H1.4V8.33333H5.26667V5.53333ZM2.8 6.93333V1.4H0V6.93333H2.8ZM1.4 2.8H5.26667V0H1.4V2.8ZM3.86667 1.4V6.93333H6.66667V1.4H3.86667ZM3.86667 11.4V13.6H6.66667V11.4H3.86667ZM1.4 12.8H5.26667V10H1.4V12.8ZM2.8 13.6V11.4H0V13.6H2.8ZM5.26667 12.2H1.4V15H5.26667V12.2ZM12.2 8.06667V13.6H15V8.06667H12.2ZM9.73333 9.46667H13.6V6.66667H9.73333V9.46667ZM11.1333 13.6V8.06667H8.33333V13.6H11.1333ZM13.6 12.2H9.73333V15H13.6V12.2ZM13.6 2.2H9.73333V5H13.6V2.2ZM12.2 1.4V3.6H15V1.4H12.2ZM9.73333 2.8H13.6V0H9.73333V2.8ZM11.1333 3.6V1.4H8.33333V3.6H11.1333ZM-1.4 7.33333C-1.4 8.65882 -0.325482 9.73333 1 9.73333V6.93333C1.22091 6.93333 1.4 7.11242 1.4 7.33333H-1.4ZM-1.4 1V7.33333H1.4V1H-1.4ZM0.999999 -1.4C-0.325486 -1.4 -1.4 -0.325482 -1.4 1H1.4C1.4 1.22091 1.22091 1.4 0.999999 1.4V-1.4ZM5.66667 -1.4H0.999999V1.4H5.66667V-1.4ZM8.06667 1C8.06667 -0.325485 6.99215 -1.4 5.66667 -1.4V1.4C5.44575 1.4 5.26667 1.22091 5.26667 1H8.06667ZM8.06667 7.33333V1H5.26667V7.33333H8.06667ZM5.66667 9.73333C6.99215 9.73333 8.06667 8.65881 8.06667 7.33333H5.26667C5.26667 7.11242 5.44575 6.93333 5.66667 6.93333V9.73333ZM1 9.73333H5.66667V6.93333H1V9.73333ZM-1.4 14C-1.4 15.3255 -0.325483 16.4 1 16.4V13.6C1.22091 13.6 1.4 13.7791 1.4 14H-1.4ZM-1.4 11V14H1.4V11H-1.4ZM0.999999 8.6C-0.325486 8.6 -1.4 9.67452 -1.4 11H1.4C1.4 11.2209 1.22091 11.4 0.999999 11.4V8.6ZM5.66667 8.6H0.999999V11.4H5.66667V8.6ZM8.06667 11C8.06667 9.67452 6.99215 8.6 5.66667 8.6V11.4C5.44575 11.4 5.26667 11.2209 5.26667 11H8.06667ZM8.06667 14V11H5.26667V14H8.06667ZM5.66667 16.4C6.99215 16.4 8.06667 15.3255 8.06667 14H5.26667C5.26667 13.7791 5.44575 13.6 5.66667 13.6V16.4ZM1 16.4H5.66667V13.6H1V16.4ZM6.93333 14C6.93333 15.3255 8.00785 16.4 9.33333 16.4V13.6C9.55425 13.6 9.73333 13.7791 9.73333 14H6.93333ZM6.93333 7.66667V14H9.73333V7.66667H6.93333ZM9.33333 5.26667C8.00785 5.26667 6.93333 6.34118 6.93333 7.66667H9.73333C9.73333 7.88758 9.55425 8.06667 9.33333 8.06667V5.26667ZM14 5.26667H9.33333V8.06667H14V5.26667ZM16.4 7.66667C16.4 6.34118 15.3255 5.26667 14 5.26667V8.06667C13.7791 8.06667 13.6 7.88758 13.6 7.66667H16.4ZM16.4 14V7.66667H13.6V14H16.4ZM14 16.4C15.3255 16.4 16.4 15.3255 16.4 14H13.6C13.6 13.7791 13.7791 13.6 14 13.6V16.4ZM9.33333 16.4H14V13.6H9.33333V16.4ZM9.33333 -1.4C8.00785 -1.4 6.93333 -0.325482 6.93333 1H9.73333C9.73333 1.22091 9.55425 1.4 9.33333 1.4V-1.4ZM14 -1.4H9.33333V1.4H14V-1.4ZM16.4 1C16.4 -0.325483 15.3255 -1.4 14 -1.4V1.4C13.7791 1.4 13.6 1.22091 13.6 1H16.4ZM16.4 4V1H13.6V4H16.4ZM14 6.4C15.3255 6.4 16.4 5.32548 16.4 4H13.6C13.6 3.77909 13.7791 3.6 14 3.6V6.4ZM9.33333 6.4H14V3.6H9.33333V6.4ZM6.93333 4C6.93333 5.32548 8.00785 6.4 9.33333 6.4V3.6C9.55425 3.6 9.73333 3.77909 9.73333 4H6.93333ZM6.93333 1V4H9.73333V1H6.93333Z" fill="white" mask="url(#path-1-inside-1)"/>
</svg>
